<?xml version="1.0" encoding="iso-8859-1"?>
<!-- Uploaded to: SVG Repo, www.svgrepo.com, Generator: SVG Repo Mixer Tools -->
<svg version="1.1" id="Layer_1" xmlns="http://www.w3.org/2000/svg" xmlns:xlink="http://www.w3.org/1999/xlink" 
	 viewBox="0 0 512 512" xml:space="preserve">
<circle style="fill:#E6F3FF;" cx="256" cy="256" r="256"/>
<path style="fill:#CFDBE6;" d="M509.683,290.461L291.34,72.116l-33.975,49.204l-49.916,12.578l60.201,60.201l-40.364,58.959
	l33.711,33.711l-33.599,15.974l40.612,40.612l-22.154,5.668L139.35,242.516H95.987L65.41,273.092v77.333l25.783,38.174
	l119.379,119.379C225.314,510.621,240.495,512,256,512C385.696,512,492.851,415.546,509.683,290.461z"/>
<path style="fill:#31BAFD;" d="M230.574,436.812c-11.205,0-21.706-5.408-28.253-14.501c-10.93-15.179-23.69-38.691-10.569-52.533
	c20.539-21.668,44.689-67.034,44.689-67.034h39.121c0,0,24.15,45.366,44.689,67.034c13.121,13.841,0.36,37.354-10.569,52.533
	c-6.547,9.094-17.048,14.501-28.253,14.501H230.574z"/>
<path style="fill:#2B9ED8;" d="M320.248,369.778c-20.539-21.668-44.689-67.034-44.689-67.034h-20.133V436.81h26
	c11.205,0,21.706-5.408,28.253-14.501C320.609,407.131,333.369,383.619,320.248,369.778z"/>
<rect x="241.778" y="113.778" style="fill:#FD8469;" width="28.444" height="170.667"/>
<g>
	<rect x="255.431" y="113.778" style="fill:#FC6F58;" width="14.796" height="170.667"/>
	<polygon style="fill:#FC6F58;" points="267.779,119.237 244.221,119.237 220.66,72.116 291.34,72.116 	"/>
</g>
<polygon style="fill:#F1543F;" points="291.34,72.116 255.426,72.116 255.426,119.237 267.779,119.237 "/>
<path style="fill:#324A5E;" d="M284.444,142.222h-56.889c-15.71,0-28.444-12.734-28.444-28.444l0,0h113.778l0,0
	C312.889,129.488,300.154,142.222,284.444,142.222z"/>
<path style="fill:#2B3B4E;" d="M255.426,113.778v28.444h29.018c15.71,0,28.444-12.734,28.444-28.444H255.426z"/>
<path style="fill:#05BEA6;" d="M278.104,305.562h-44.21c-4.93,0-8.926-3.996-8.926-8.926v-6.284c0-4.93,3.996-8.926,8.926-8.926
	h44.21c4.93,0,8.926,3.996,8.926,8.926v6.284C287.03,301.566,283.034,305.562,278.104,305.562z"/>
<path style="fill:#2C9984;" d="M278.104,281.428h-22.678v24.135h22.678c4.93,0,8.926-3.996,8.926-8.926v-6.284
	C287.03,285.424,283.034,281.428,278.104,281.428z"/>
<path style="fill:#F9B54C;" d="M278.104,256h-44.21c-4.93,0-8.926-3.996-8.926-8.926v-6.284c0-4.93,3.996-8.926,8.926-8.926h44.21
	c4.93,0,8.926,3.996,8.926,8.926v6.284C287.03,252.004,283.034,256,278.104,256z"/>
<path style="fill:#F4A200;" d="M278.104,231.865h-22.678V256h22.678c4.93,0,8.926-3.996,8.926-8.926v-6.284
	C287.03,235.861,283.034,231.865,278.104,231.865z"/>
<path style="fill:#324A5E;" d="M130.796,402.199c-8.811,0-17.205-1.464-25.181-4.841c-18.316-7.752-32.373-24.881-42.977-52.362
	c-7.42-19.228-7.48-34.792-7.527-47.295l-0.002-0.228c-0.102-25.688,14.645-47.814,38.483-57.742
	c24.147-10.059,50.593-4.855,69.02,13.574l26.526,26.524c3.031,3.029,3.031,7.94,0,10.969c-3.027,3.031-7.939,3.031-10.969,0
	l-26.526-26.524c-16.612-16.61-37.798-16.172-52.086-10.223c-17.922,7.465-29.008,24.08-28.932,43.36l0.002,0.228
	c0.047,12.393,0.098,25.209,6.487,41.769c9.009,23.352,20.309,37.633,34.549,43.66c25.085,10.618,59.863-4.158,100.131-21.268
	c56.058-23.817,125.821-53.465,201.968-26.924c4.046,1.408,6.184,5.832,4.773,9.876c-1.408,4.048-5.829,6.187-9.876,4.773
	c-70.492-24.564-134.404,2.593-190.797,26.553C185.489,389.839,156.394,402.198,130.796,402.199z"/>
<path style="fill:#2B3B4E;" d="M413.762,334.879c-57.463-20.028-111.288-8.056-158.336,9.259v16.534
	c46.73-17.863,97.957-30.405,153.231-11.143c4.049,1.414,8.468-0.726,9.876-4.773C419.945,340.711,417.806,336.287,413.762,334.879z
	"/>
<path style="fill:#2B9ED8;" d="M222.384,337.886c-3.308,0-6.618-1.262-9.144-3.786l-56.889-56.889
	c-5.049-5.051-5.049-13.236,0-18.285c5.051-5.048,13.236-5.048,18.285,0l56.889,56.889c5.049,5.051,5.049,13.236,0,18.285
	C229.002,336.624,225.692,337.886,222.384,337.886z"/>
</svg>